<svg xmlns="http://www.w3.org/2000/svg" width="37" height="37" viewBox="0 0 37 37">
  <g id="Call" transform="translate(-8.232 -8.229)">
    <path id="Path_87" data-name="Path 87" d="M45.085,36.684c-.631-1.992-3.282-4-8.341-6.311a5.473,5.473,0,0,0-6.44,1.17,33.413,33.413,0,0,1-4.6-3.791,33.5,33.5,0,0,1-3.791-4.6,5.477,5.477,0,0,0,1.17-6.44c-2.313-5.059-4.318-7.71-6.311-8.342a2.786,2.786,0,0,0-2.3.235c-.265.155-6.489,3.822-6.237,6.771.551,6.429,6.009,13.981,10.934,18.906S31.651,44.671,38.08,45.221c.059.005.117.008.177.008,2.917,0,6.441-5.984,6.593-6.244A2.781,2.781,0,0,0,45.085,36.684Zm-2.252,1.123c-1.284,2.2-3.727,5.064-4.554,5.087-5.8-.5-12.822-5.626-17.455-10.259S11.063,20.984,10.567,15.19c.022-.834,2.884-3.277,5.086-4.562a.406.406,0,0,1,.216-.062.662.662,0,0,1,.2.036c.581.184,2.221,1.243,4.893,7.087a3.289,3.289,0,0,1-1.219,4.239,1.167,1.167,0,0,0-.379,1.6A34.842,34.842,0,0,0,24.057,29.4,34.889,34.889,0,0,0,29.938,34.1a1.176,1.176,0,0,0,1.592-.372A3.292,3.292,0,0,1,35.773,32.5c5.843,2.671,6.9,4.311,7.086,4.893A.461.461,0,0,1,42.833,37.808ZM28.926,10.392A1.168,1.168,0,0,1,30.048,9.18,13.25,13.25,0,0,1,43.786,22.946a1.167,1.167,0,0,1-1.166,1.118h-.05a1.167,1.167,0,0,1-1.117-1.216A10.915,10.915,0,0,0,30.138,11.513a1.145,1.145,0,0,1-1.212-1.122Zm1.363,5.01a7.024,7.024,0,0,1,7.275,7.282A1.167,1.167,0,0,1,36.4,23.8h-.05a1.167,1.167,0,0,1-1.117-1.216A4.662,4.662,0,0,0,33.861,19.1a4.613,4.613,0,0,0-3.483-1.37,1.168,1.168,0,1,1-.09-2.333Z" fill="#FDA04E"/>
  </g>
</svg>
