<svg xmlns="http://www.w3.org/2000/svg" width="24.395" height="24.398" viewBox="0 0 24.395 24.398"><defs><style>.a{fill:#fda04e;}</style></defs><path class="a" d="M24.24,10.611l0,0L14.286.657a2.246,2.246,0,0,0-3.177,0L1.162,10.6l-.01.01a2.245,2.245,0,0,0,1.495,3.827c.023,0,.046,0,.069,0h.4v7.324A2.632,2.632,0,0,0,5.741,24.4H9.635a.715.715,0,0,0,.715-.715V17.94a1.2,1.2,0,0,1,1.2-1.2h2.3a1.2,1.2,0,0,1,1.2,1.2v5.742a.715.715,0,0,0,.715.715h3.894a2.632,2.632,0,0,0,2.629-2.629V14.445h.368a2.246,2.246,0,0,0,1.59-3.833Zm-1.012,2.164a.811.811,0,0,1-.577.239H21.568a.715.715,0,0,0-.715.715v8.039a1.2,1.2,0,0,1-1.2,1.2H16.475V17.94a2.632,2.632,0,0,0-2.629-2.629h-2.3A2.632,2.632,0,0,0,8.92,17.94v5.027H5.741a1.2,1.2,0,0,1-1.2-1.2V13.73a.715.715,0,0,0-.715-.715H2.73a.816.816,0,0,1-.562-1.393h0L12.12,1.668a.816.816,0,0,1,1.154,0l9.95,9.95,0,0a.818.818,0,0,1,0,1.154Zm0,0" transform="translate(-0.5 0.001)"/></svg>