<?xml version="1.0" standalone="no"?>
<!DOCTYPE svg PUBLIC "-//W3C//DTD SVG 20010904//EN"
 "http://www.w3.org/TR/2001/REC-SVG-20010904/DTD/svg10.dtd">
<svg version="1.0" xmlns="http://www.w3.org/2000/svg"
 width="700.000000pt" height="700.000000pt" viewBox="0 0 700.000000 700.000000"
 preserveAspectRatio="xMidYMid meet">
<metadata>
Created by potrace 1.16, written by Peter Selinger 2001-2019
</metadata>
<g transform="translate(0.000000,700.000000) scale(0.100000,-0.100000)"
fill="#000000" stroke="none">
<path d="M1470 5774 c0 -114 3 -173 10 -169 6 3 10 -3 10 -15 0 -25 81 -110
104 -110 9 0 16 -4 16 -10 0 -7 633 -10 1880 -10 1247 0 1880 3 1880 10 0 6 8
10 19 10 10 0 24 7 31 15 7 8 19 15 26 15 8 0 14 9 14 20 0 11 5 20 10 20 6 0
10 6 10 14 0 7 7 19 15 26 13 11 16 42 15 187 l-2 173 -2019 0 -2019 0 0 -176z"/>
<path d="M1680 5310 c0 -5 5 -10 10 -10 6 0 10 -5 10 -10 0 -10 8 -22 38 -55
6 -7 12 -24 12 -37 0 -18 2 -20 10 -8 8 12 10 11 10 -7 0 -14 6 -23 15 -23 9
0 15 -10 15 -26 0 -14 4 -23 10 -19 6 3 10 -3 10 -15 0 -12 5 -18 10 -15 9 5
15 -15 11 -37 0 -5 6 -8 14 -8 8 0 15 -9 15 -21 0 -11 5 -17 10 -14 6 3 10 -3
10 -14 0 -12 5 -21 10 -21 6 0 10 -5 10 -10 0 -10 8 -22 38 -55 6 -7 12 -21
12 -29 0 -9 5 -16 10 -16 6 0 10 -7 10 -15 0 -8 4 -15 10 -15 5 0 12 -11 16
-25 3 -14 10 -22 15 -19 5 3 9 -2 9 -10 0 -9 5 -16 10 -16 6 0 10 -7 10 -15 0
-8 11 -25 25 -39 14 -14 25 -32 25 -41 0 -15 6 -25 38 -60 6 -7 12 -18 12 -24
0 -6 5 -11 10 -11 6 0 10 -7 10 -16 0 -9 10 -26 23 -38 12 -12 23 -29 25 -37
2 -7 8 -15 13 -17 5 -2 9 -16 9 -30 0 -21 2 -24 10 -12 8 12 10 11 10 -7 0
-14 6 -23 15 -23 10 0 15 -10 15 -27 0 -22 2 -25 10 -13 8 12 10 9 10 -13 0
-16 4 -26 10 -22 9 5 15 -15 11 -37 0 -5 6 -8 14 -8 8 0 15 -7 15 -15 0 -8 5
-15 10 -15 6 0 10 -7 10 -15 0 -9 11 -28 25 -43 14 -15 25 -32 25 -39 0 -7 5
-13 10 -13 6 0 10 -12 10 -26 0 -14 4 -23 10 -19 6 3 10 -1 10 -9 0 -9 4 -16
10 -16 5 0 12 -11 16 -25 3 -14 10 -22 15 -19 5 3 9 -4 9 -16 0 -12 4 -19 9
-16 5 3 12 -5 15 -19 4 -14 11 -25 16 -25 6 0 10 -10 10 -22 0 -19 2 -20 10
-8 8 12 10 10 10 -8 0 -13 6 -30 13 -37 29 -33 37 -45 37 -55 0 -5 5 -10 10
-10 6 0 10 -9 10 -20 0 -11 5 -20 10 -20 6 0 10 -5 10 -10 0 -10 8 -22 38 -55
6 -7 12 -21 12 -30 0 -19 23 -45 39 -45 6 0 11 -11 11 -25 0 -14 5 -25 10 -25
6 0 10 -5 10 -11 0 -6 7 -17 15 -26 8 -8 13 -19 10 -24 -4 -5 1 -9 9 -9 9 0
16 -7 16 -16 0 -8 5 -12 10 -9 6 3 10 -3 10 -15 0 -12 6 -28 13 -35 29 -33 37
-45 37 -55 0 -5 5 -10 10 -10 6 0 10 -8 10 -17 0 -10 11 -31 25 -47 14 -16 25
-35 25 -43 0 -7 5 -13 10 -13 6 0 10 -7 10 -16 0 -8 5 -12 10 -9 6 3 10 -3 10
-15 0 -11 7 -23 15 -26 8 -4 15 -16 15 -28 0 -17 2 -18 10 -6 6 10 10 -345 10
-1012 0 -679 3 -1028 10 -1028 6 0 10 5 10 10 0 6 5 10 11 10 11 0 39 25 39
35 0 8 27 35 35 35 8 0 35 27 35 35 0 8 27 35 35 35 8 0 35 27 35 35 0 8 27
35 35 35 8 0 35 27 35 35 0 8 27 35 35 35 8 0 35 27 35 35 0 8 27 35 35 35 8
0 35 27 35 35 0 8 27 35 35 35 8 0 35 27 35 35 0 8 27 35 35 35 8 0 35 27 35
35 0 8 27 35 35 35 8 0 35 27 35 35 0 8 27 35 35 35 8 0 35 27 35 35 0 8 27
35 35 35 8 0 35 27 35 35 0 10 28 35 39 35 8 0 11 186 11 620 0 407 3 620 10
620 6 0 10 9 10 20 0 11 5 20 10 20 6 0 10 5 10 11 0 6 6 17 13 24 31 36 37
45 37 62 0 10 11 27 25 37 14 10 25 27 25 38 0 11 5 16 10 13 6 -3 10 3 10 15
0 12 5 18 10 15 9 -5 15 15 11 38 0 4 6 7 14 7 8 0 15 7 15 15 0 8 5 15 10 15
6 0 10 9 10 20 0 11 5 20 10 20 6 0 10 6 10 13 0 7 11 24 25 39 14 15 25 37
25 48 0 12 5 18 10 15 6 -3 10 1 10 9 0 9 7 16 15 16 8 0 14 3 14 8 -4 22 2
42 11 37 6 -3 10 1 10 9 0 9 5 16 10 16 6 0 10 8 10 19 0 10 11 27 25 37 14
10 25 27 25 37 0 10 11 30 25 45 14 15 25 32 25 39 0 7 5 13 10 13 6 0 10 9
10 20 0 11 5 20 10 20 6 0 10 5 10 11 0 6 6 17 12 24 32 36 38 45 38 62 0 10
11 27 25 37 14 10 25 28 25 40 0 17 2 18 10 6 8 -12 10 -9 10 13 0 16 4 26 10
22 6 -4 10 5 10 19 0 17 6 26 16 26 8 0 12 5 9 10 -3 6 1 13 9 16 9 3 16 15
16 25 0 10 5 19 10 19 6 0 10 6 10 13 0 7 11 24 25 39 14 15 25 37 25 48 0 12
4 18 10 15 6 -3 10 -1 10 5 0 6 6 18 13 25 31 35 37 45 37 60 0 9 4 13 10 10
6 -3 10 3 10 15 0 11 7 23 15 26 8 4 15 15 15 26 0 10 5 16 10 13 6 -3 10 1
10 10 0 9 6 23 13 30 29 33 37 45 37 55 0 5 5 10 10 10 6 0 10 9 10 20 0 11 5
20 10 20 6 0 10 5 10 11 0 6 6 17 13 24 31 36 37 46 37 65 0 12 5 18 10 15 6
-3 10 0 10 8 0 8 7 17 15 21 8 3 15 16 15 28 0 19 2 20 10 8 8 -12 10 -9 10
13 0 16 4 26 10 22 6 -4 10 5 10 19 0 16 6 26 15 26 8 0 15 7 15 15 0 8 5 15
10 15 6 0 10 9 10 20 0 11 5 20 10 20 6 0 10 5 10 10 0 10 8 22 38 55 6 7 12
24 12 37 0 18 2 20 10 8 8 -12 10 -11 10 8 0 12 4 22 10 22 5 0 13 12 16 26 5
19 9 22 15 12 6 -9 9 -7 9 10 0 12 5 22 10 22 6 0 10 11 10 25 0 16 6 25 15
25 8 0 15 5 15 10 0 7 -610 10 -1810 10 -1200 0 -1810 -3 -1810 -10z m610
-191 c0 -5 5 -7 10 -4 6 3 10 -3 10 -15 0 -12 4 -19 9 -16 5 3 12 -5 15 -19 4
-14 11 -25 16 -25 6 0 10 -7 10 -16 0 -8 5 -12 10 -9 6 3 10 -3 10 -15 0 -11
11 -33 25 -48 14 -15 25 -32 25 -39 0 -7 5 -13 10 -13 6 0 10 -9 10 -21 0 -11
5 -17 10 -14 6 3 10 -3 10 -14 0 -12 7 -21 15 -21 8 0 15 -9 15 -20 0 -11 5
-20 10 -20 6 0 10 -7 10 -15 0 -8 5 -15 10 -15 6 0 10 -7 10 -15 0 -9 11 -26
25 -39 14 -13 25 -33 25 -45 0 -12 4 -19 10 -16 6 3 10 -1 10 -9 0 -9 6 -16
13 -16 7 0 14 -10 14 -22 1 -13 7 -24 13 -26 5 -2 10 -11 10 -19 0 -9 11 -26
25 -39 14 -13 25 -30 25 -39 0 -9 5 -13 10 -10 6 3 10 -5 10 -18 0 -14 7 -28
16 -31 8 -3 13 -10 10 -15 -3 -5 1 -11 9 -15 8 -3 15 -16 15 -28 0 -19 2 -20
10 -8 8 12 10 9 10 -13 0 -16 4 -26 9 -23 5 3 12 -5 15 -19 4 -14 11 -25 16
-25 6 0 10 -7 10 -16 0 -8 5 -12 10 -9 6 3 10 -3 10 -15 0 -19 6 -29 38 -65 6
-7 12 -18 12 -24 0 -6 5 -11 10 -11 6 0 10 -10 10 -22 0 -19 2 -20 10 -8 8 12
10 9 10 -12 0 -18 5 -28 15 -28 8 0 15 -9 15 -20 0 -11 5 -20 10 -20 6 0 10
-7 10 -15 0 -8 3 -15 8 -15 4 0 16 -16 26 -35 11 -19 23 -35 28 -35 4 0 8 -12
8 -26 0 -14 4 -23 9 -20 5 3 12 -5 15 -19 4 -14 11 -25 16 -25 6 0 10 -7 10
-15 0 -8 5 -15 10 -15 6 0 10 -9 10 -21 0 -11 5 -17 10 -14 6 3 10 -1 10 -10
0 -8 7 -18 15 -21 8 -4 13 -10 10 -14 -3 -5 2 -15 10 -23 8 -9 15 -26 15 -39
0 -18 2 -20 10 -8 9 13 10 13 11 0 1 -8 1 -18 0 -22 0 -5 6 -8 14 -8 10 0 15
-10 15 -27 0 -22 2 -25 10 -13 8 12 10 11 10 -7 0 -13 4 -23 9 -23 5 0 12 -11
15 -25 4 -14 11 -25 16 -25 6 0 10 -7 10 -16 0 -8 5 -12 10 -9 6 3 10 -4 10
-16 0 -12 11 -32 25 -45 14 -13 25 -30 25 -39 0 -8 5 -15 10 -15 6 0 10 -9 10
-21 0 -11 5 -17 10 -14 6 3 10 -3 10 -14 0 -12 7 -21 15 -21 8 0 15 -9 15 -20
0 -11 5 -20 10 -20 6 0 10 -6 10 -14 0 -8 4 -16 9 -18 5 -1 11 -12 13 -23 3
-19 -3 -20 -88 -23 l-90 -3 -20 36 c-10 19 -22 35 -26 35 -5 0 -8 12 -8 28 0
21 -2 24 -10 12 -8 -12 -10 -11 -10 6 0 12 -7 24 -15 28 -8 3 -15 16 -15 28 0
19 -2 20 -10 8 -8 -12 -10 -9 -10 13 0 16 -4 26 -9 23 -5 -3 -12 5 -15 19 -4
14 -11 25 -16 25 -6 0 -10 7 -10 16 0 8 -4 12 -10 9 -5 -3 -10 3 -10 15 0 11
-11 33 -25 48 -14 15 -25 32 -25 39 0 7 -4 13 -10 13 -5 0 -10 9 -10 21 0 11
-4 17 -10 14 -5 -3 -10 3 -10 14 0 12 -7 21 -15 21 -8 0 -15 9 -15 20 0 11 -4
20 -10 20 -5 0 -10 7 -10 15 0 8 -4 15 -9 15 -5 0 -13 10 -17 23 -4 12 -15 29
-25 38 -11 9 -19 27 -19 39 0 13 -3 20 -7 17 -6 -7 -27 23 -39 56 -3 9 -10 17
-15 17 -5 0 -9 7 -9 16 0 9 -10 26 -22 38 -13 12 -24 29 -26 37 -2 7 -8 16
-13 17 -5 2 -9 16 -9 30 0 21 -2 24 -10 12 -9 -14 -11 -10 -10 15 0 3 -11 16
-25 29 -14 13 -25 33 -25 45 0 12 -4 20 -9 17 -5 -3 -12 5 -15 19 -4 14 -11
25 -16 25 -6 0 -10 7 -10 16 0 8 -4 12 -10 9 -5 -3 -10 3 -10 15 0 11 -11 33
-25 48 -14 15 -25 32 -25 39 0 7 -4 13 -10 13 -5 0 -10 9 -10 21 0 11 -4 17
-10 14 -5 -3 -10 3 -10 14 0 12 -7 21 -16 21 -8 0 -13 4 -9 9 3 5 -2 16 -10
24 -8 9 -15 20 -15 26 0 6 -4 11 -10 11 -5 0 -10 9 -10 20 0 11 -7 20 -15 20
-8 0 -15 7 -15 15 0 8 -4 15 -10 15 -5 0 -10 9 -10 20 0 19 -6 29 -37 65 -7 7
-13 18 -13 24 0 6 -4 11 -10 11 -5 0 -10 9 -10 21 0 11 -4 17 -10 14 -5 -3
-10 1 -10 10 0 8 -7 18 -15 21 -8 4 -13 10 -10 14 3 5 -2 15 -10 23 -8 9 -15
23 -15 32 0 9 -4 13 -10 10 -5 -3 -10 3 -10 14 0 12 -7 21 -15 21 -10 0 -15
10 -15 28 0 21 -2 24 -10 12 -8 -12 -10 -9 -10 13 0 16 -4 26 -10 22 -9 -5
-15 15 -11 38 0 4 -6 7 -14 7 -8 0 -15 7 -15 15 0 8 -4 15 -10 15 -5 0 -10 7
-10 15 0 9 -11 28 -25 43 -14 15 -25 32 -25 39 0 7 -4 13 -10 13 -5 0 -10 5
-10 10 0 6 38 10 95 10 60 0 95 -4 95 -11z"/>
<path d="M2113 3465 c-7 -8 -13 -19 -13 -25 0 -5 -9 -10 -21 -10 -11 0 -18 -4
-14 -9 3 -5 -4 -12 -15 -16 -11 -3 -20 -13 -20 -21 0 -8 -4 -13 -9 -9 -5 3
-12 -4 -16 -15 -3 -11 -11 -20 -16 -20 -5 0 -9 -7 -9 -16 0 -8 -4 -12 -10 -9
-5 3 -10 -1 -10 -9 0 -9 -4 -16 -10 -16 -5 0 -10 -6 -10 -13 0 -7 -11 -24 -25
-39 -14 -15 -25 -37 -25 -49 0 -12 -3 -20 -6 -16 -8 8 -44 -62 -44 -86 0 -10
-4 -15 -10 -12 -6 4 -10 -12 -10 -42 0 -35 -3 -44 -10 -33 -7 11 -10 0 -10
-38 0 -29 -5 -63 -11 -74 -18 -34 -20 -206 -3 -239 8 -16 14 -51 14 -79 0 -27
5 -50 10 -50 6 0 10 -23 10 -51 0 -31 4 -48 10 -44 8 5 15 -31 11 -57 0 -5 6
-8 14 -8 10 0 15 -10 15 -30 0 -16 5 -30 10 -30 6 0 10 -13 10 -30 0 -16 5
-30 10 -30 6 0 10 -9 10 -20 0 -11 7 -20 15 -20 9 0 15 -9 15 -25 0 -14 5 -25
10 -25 6 0 10 -13 10 -30 0 -32 -30 -70 -55 -70 -8 0 -15 -4 -15 -10 0 -5 -7
-10 -16 -10 -8 0 -12 -4 -9 -10 3 -5 -1 -10 -9 -10 -8 0 -26 -11 -40 -25 -14
-14 -28 -25 -31 -25 -4 0 -13 -6 -20 -12 -33 -30 -45 -38 -55 -38 -5 0 -10 -4
-10 -10 0 -5 -10 -10 -22 -10 -17 0 -19 -3 -10 -9 10 -6 7 -10 -12 -15 -23 -6
-25 -9 -14 -26 9 -14 24 -20 48 -20 26 0 31 -3 20 -10 -12 -8 -10 -10 10 -11
39 -1 62 -7 73 -18 6 -6 24 -11 40 -11 16 0 26 -4 22 -10 -4 -6 10 -10 35 -10
25 0 39 -4 35 -10 -4 -6 9 -10 32 -10 21 0 47 -7 57 -15 11 -8 30 -15 44 -15
13 0 20 -4 17 -10 -4 -6 10 -10 35 -10 25 0 39 -4 35 -10 -4 -6 6 -10 22 -10
15 -1 39 -7 53 -15 14 -8 38 -14 53 -15 16 0 26 -4 22 -10 -4 -6 13 -10 42
-11 36 0 43 -3 28 -9 -16 -7 -11 -9 22 -9 23 -1 48 -8 57 -16 8 -8 26 -15 41
-15 15 0 24 -4 20 -10 -4 -6 12 -10 40 -10 28 0 44 -4 40 -10 -4 -6 5 -10 20
-10 15 0 33 -7 41 -15 9 -8 32 -15 52 -15 28 0 33 -3 22 -10 -11 -7 2 -10 43
-10 l57 0 3 223 c1 122 2 276 2 342 0 66 3 140 7 165 8 53 18 469 11 488 -7
19 -37 14 -53 -8 -8 -11 -22 -20 -31 -20 -9 0 -20 -7 -23 -16 -3 -8 -10 -12
-16 -9 -5 3 -10 -1 -10 -9 0 -9 -7 -16 -15 -16 -8 0 -15 -4 -15 -10 0 -5 -7
-10 -16 -10 -9 0 -31 -16 -50 -35 -18 -19 -40 -35 -49 -35 -19 0 -45 -23 -45
-40 0 -6 -4 -9 -9 -5 -5 3 -16 -2 -24 -10 -17 -17 -72 -21 -62 -5 3 6 -1 10
-9 10 -10 0 -16 9 -16 23 0 12 -9 29 -20 37 -11 8 -20 18 -20 23 0 7 -9 20
-37 52 -7 7 -13 24 -13 37 0 18 -2 20 -10 8 -8 -12 -10 -11 -10 6 0 12 -7 24
-15 28 -8 3 -15 15 -15 26 0 11 -4 20 -10 20 -5 0 -10 9 -10 21 0 11 -4 17
-10 14 -5 -3 -10 3 -10 13 0 11 -7 25 -15 32 -8 7 -15 24 -15 39 0 20 -2 23
-10 11 -7 -11 -10 -5 -10 23 0 20 -4 37 -10 37 -5 0 -10 8 -10 18 0 10 -7 27
-15 38 -8 10 -15 34 -15 52 0 20 -4 31 -10 27 -7 -4 -10 52 -10 160 0 108 3
164 10 160 6 -4 10 5 10 20 0 15 7 33 15 41 18 19 20 44 3 44 -7 -1 -19 -7
-25 -15z"/>
</g>
</svg>
