<svg xmlns="http://www.w3.org/2000/svg" width="52.797" height="37.584" viewBox="0 0 52.797 37.584">
  <g id="Group_117" data-name="Group 117" transform="translate(-2.5 -11)">
    <path id="Path_88" data-name="Path 88" d="M50.375,11H7.422A4.928,4.928,0,0,0,2.5,15.922V43.662a4.928,4.928,0,0,0,4.922,4.922H50.375A4.928,4.928,0,0,0,55.3,43.662V15.922A4.928,4.928,0,0,0,50.375,11Zm2.237,32.662A2.237,2.237,0,0,1,50.375,45.9H7.422a2.237,2.237,0,0,1-2.237-2.237V15.922a2.237,2.237,0,0,1,2.237-2.237H50.375a2.237,2.237,0,0,1,2.237,2.237ZM50.43,16.315a1.342,1.342,0,0,1,0,1.9l-11.6,11.6L50,41.389a1.342,1.342,0,0,1-1.933,1.863L36.934,31.708,33.641,35a6.717,6.717,0,0,1-9.491,0l-3.288-3.29L9.73,43.252A1.342,1.342,0,0,1,7.8,41.389L18.965,29.809l-11.6-11.6a1.343,1.343,0,0,1,1.9-1.9L26.051,33.1a4.032,4.032,0,0,0,5.695,0L48.531,16.315A1.342,1.342,0,0,1,50.43,16.315Z" transform="translate(0 0)" fill="#FDA04E"/>
  </g>
</svg>
